<?xml version="1.0" standalone="no"?>
<!DOCTYPE svg PUBLIC "-//W3C//DTD SVG 20010904//EN"
 "http://www.w3.org/TR/2001/REC-SVG-20010904/DTD/svg10.dtd">
<svg version="1.0" xmlns="http://www.w3.org/2000/svg"
 width="500.000000pt" height="500.000000pt" viewBox="0 0 500.000000 500.000000"
 preserveAspectRatio="xMidYMid meet">

<g transform="translate(0.000000,500.000000) scale(0.100000,-0.100000)"
fill="#000000" stroke="none">
<path d="M0 2500 l0 -2500 2500 0 2500 0 0 2500 0 2500 -2500 0 -2500 0 0
-2500z m1155 109 c70 -61 70 -157 0 -218 -30 -26 -44 -31 -86 -31 -62 0 -100
21 -128 70 -37 66 -23 131 39 184 26 21 42 26 85 26 46 0 59 -5 90 -31z m699
12 c89 -59 88 -198 -3 -246 -38 -19 -104 -19 -142 0 -89 47 -93 193 -6 245 42
26 113 26 151 1z m703 2 c45 -21 69 -61 78 -129 5 -45 3 -63 -15 -99 -27 -56
-91 -91 -148 -80 -51 9 -98 48 -112 91 -15 46 -7 137 15 170 39 59 115 79 182
47z m721 1 c91 -54 94 -190 7 -244 -64 -40 -160 -18 -201 46 -24 36 -23 111 1
148 41 62 134 86 193 50z m705 5 c93 -48 111 -163 37 -234 -38 -36 -119 -46
-169 -21 -92 48 -94 201 -3 251 32 17 105 19 135 4z"/>
</g>
</svg>
